<?xml version="1.0" encoding="utf-8"?>
<!-- Generator: Adobe Illustrator 24.2.1, SVG Export Plug-In . SVG Version: 6.00 Build 0)  -->
<svg version="1.1" id="레이어_1" xmlns="http://www.w3.org/2000/svg" xmlns:xlink="http://www.w3.org/1999/xlink" x="0px"
	 y="0px" viewBox="0 0 142.5 312.5" style="enable-background:new 0 0 142.5 312.5;" xml:space="preserve">
<style type="text/css">
	.st0{fill:#303030;}
	.st1{fill:#FFFFFF;}
</style>
<path d="M63.2,234.8c0.4,0,0.8-0.3,0.8-0.8V0h-1.5v234.1C62.4,234.5,62.7,234.8,63.2,234.8z"/>
<g>
	<g>
		<path d="M48.1,255.7c-0.3,0-0.6-0.1-0.8-0.4l-6.7-8.5c-1-1.2-1.9-2.3-2.9-2.5c-0.9-0.2-1.9,0.1-3,0.5c-5.6,2-11,4.6-16,7.8
			c-0.5,0.3-1.2,0.1-1.5-0.5s-0.1-1.3,0.4-1.7c5.2-3.3,10.7-6,16.5-8c1.3-0.5,2.7-0.9,4.1-0.5c1.9,0.5,3.2,2.1,4.1,3.3l6.7,8.5
			c0.4,0.5,0.4,1.3-0.1,1.7C48.6,255.6,48.3,255.7,48.1,255.7z"/>
		<path d="M9.1,267.8c-0.4,0-0.7-0.2-0.9-0.6c-0.3-0.6-0.1-1.3,0.4-1.7l10.6-6.8c3.1-2,6.3-4.1,9.7-5.7c2-1,4.4-1.8,6.8-1
			c1.9,0.6,3.4,2.3,4.5,3.7l5.3,6.1c0.4,0.5,0.4,1.3,0,1.7c-0.4,0.5-1.1,0.4-1.5,0l-5.3-6.1c-1-1.2-2.2-2.5-3.6-3
			c-1.7-0.6-3.6,0.2-5.3,1c-3.3,1.6-6.4,3.6-9.5,5.5l-10.6,6.8C9.5,267.7,9.3,267.8,9.1,267.8z"/>
		<path d="M21.1,294.5c-0.1,0-0.3,0-0.4-0.1c-0.6-0.3-0.8-1-0.6-1.6l6.8-18.1c0.9-2.4,1.9-5,3.3-7.2c0.6-1,1.7-2.4,3.2-3.1
			c2-0.9,4.1-0.3,5.9,0.4c3,1.2,5.9,2.7,8.6,4.5c0.5,0.4,0.7,1.1,0.4,1.7s-1,0.7-1.5,0.4c-2.6-1.8-5.3-3.2-8.1-4.3
			c-1.4-0.6-3.1-1-4.4-0.5c-0.8,0.3-1.5,1.1-2.3,2.2c-1.3,2-2.2,4.4-3.1,6.7l-6.8,18.1C22,294.2,21.6,294.5,21.1,294.5z"/>
		<path d="M40.2,309.5c-0.5,0-1-0.4-1.1-1c-1.4-9.7-1.2-19.6,0.6-29.2c0.2-0.9,0.4-1.8,1-2.5s1.5-1,2.1-1.2l7.3-2.2
			c0.6-0.2,1.2,0.2,1.3,0.9c0.2,0.6-0.2,1.3-0.8,1.5l-7.3,2.2c-0.4,0.1-0.9,0.3-1.1,0.5c-0.2,0.3-0.3,0.8-0.4,1.3
			c-1.7,9.4-1.9,18.9-0.6,28.4C41.3,308.9,40.9,309.5,40.2,309.5C40.3,309.5,40.2,309.5,40.2,309.5z"/>
		<path d="M81,307c-0.1,0-0.2,0-0.3,0c-0.6-0.2-1-0.8-0.8-1.5c1.7-8.1,3.5-16.4,3.5-24.8c0-1.7-0.1-3.5-0.9-4.9
			c-1-1.7-2.9-2.6-5-3.5c-0.6-0.2-0.9-0.9-0.7-1.6s0.8-1,1.4-0.7c2,0.8,4.7,1.9,6.2,4.5c1,1.9,1.2,4.1,1.2,6.1
			c0,8.7-1.8,17.2-3.5,25.4C81.9,306.7,81.5,307,81,307z"/>
		<path d="M100.3,292.4c-0.5,0-0.9-0.3-1-0.8c-2.3-8.1-4.7-16.4-9-23.6c-0.4-0.6-0.8-1.3-1.3-1.5c-0.4-0.2-1-0.1-1.7,0.1l-6.4,1.5
			c-0.6,0.1-1.2-0.3-1.3-0.9c-0.1-0.7,0.3-1.3,0.9-1.4l6.4-1.5c0.8-0.2,1.8-0.4,2.9,0c1.2,0.5,1.9,1.5,2.4,2.5
			c4.4,7.4,6.8,16,9.2,24.2c0.2,0.6-0.1,1.3-0.7,1.5C100.5,292.4,100.4,292.4,100.3,292.4z"/>
		<path d="M92.5,282.3c-0.1,0-0.3,0-0.4-0.1c-0.6-0.3-0.8-1-0.6-1.6c3-8,4.6-16.4,4.8-25.1c0-0.4,0-1.2-0.2-1.5
			c-0.1-0.1-0.4-0.2-0.7-0.1c-0.4,0.1-0.9,0.3-1.3,0.6l-12.3,7.2c-0.5,0.3-1.2,0.1-1.5-0.5s-0.1-1.3,0.5-1.6l12.3-7.2
			c0.6-0.3,1.2-0.7,1.9-0.9c1-0.2,2,0.1,2.6,0.8c1,1,0.9,2.6,0.9,3.4c-0.2,8.9-1.9,17.7-5,25.9C93.3,282.1,92.9,282.3,92.5,282.3z"
			/>
		<path d="M110.9,262.7c-0.3,0-0.6-0.1-0.8-0.4l-12.6-14.5c-1.1-1.2-2.2-2.6-3.7-3c-1.2-0.4-2.4-0.1-3.2,0.2
			c-1.9,0.7-3.6,2.3-5.1,3.9c-2.2,2.2-4.4,4.6-6.4,7c-0.4,0.5-1.1,0.5-1.5,0.1c-0.4-0.5-0.5-1.2-0.1-1.7c2.1-2.5,4.3-4.9,6.5-7.2
			c1.7-1.7,3.6-3.5,5.9-4.4c1.6-0.6,3.1-0.7,4.5-0.3c2,0.6,3.5,2.3,4.7,3.7l12.6,14.5c0.4,0.5,0.4,1.3,0,1.7
			C111.4,262.6,111.2,262.7,110.9,262.7z"/>
	</g>
	<ellipse class="st0" cx="62.8" cy="256.4" rx="23.6" ry="21.4"/>
	<ellipse cx="62.8" cy="263" rx="20.1" ry="18.2"/>
	<path class="st1" d="M75.2,258c0,3.1-2.2,5.5-5,5.5s-5-2.5-5-5.5c0-3.1,2.2-5.5,5-5.5S75.2,254.9,75.2,258z"/>
	<path d="M71.2,258.2c0,1-0.7,1.8-1.6,1.8s-1.6-0.8-1.6-1.8s0.7-1.8,1.6-1.8C70.5,256.4,71.2,257.2,71.2,258.2z"/>
	<path class="st1" d="M51,258c0,3.1,2.2,5.5,5,5.5s5-2.5,5-5.5c0-3.1-2.2-5.5-5-5.5S51,254.9,51,258z"/>
	<path d="M55,258.2c0,1,0.7,1.8,1.6,1.8s1.6-0.8,1.6-1.8s-0.7-1.8-1.6-1.8S55,257.2,55,258.2z"/>
	<path class="st1" d="M76.7,268.5H48.9c-0.2,0-0.4-0.2-0.4-0.4s0.2-0.4,0.4-0.4h27.8c0.2,0,0.4,0.2,0.4,0.4S76.9,268.5,76.7,268.5z"
		/>
	<g>
		<polygon class="st1" points="53.1,268 55,274.5 56.9,268 		"/>
		<polygon class="st1" points="68.7,268 70.6,274.5 72.5,268 		"/>
	</g>
</g>
</svg>
