<svg id="game_icons" xmlns="http://www.w3.org/2000/svg" width="57" height="57" viewBox="0 0 88.61 88.61"><defs><style>.cls-1{fill:#e94c4d;}.cls-2{fill:#fff;}</style></defs><path class="cls-1" d="M387.16,437.62a44.31,44.31,0,1,1-44.31-44.31A44.3,44.3,0,0,1,387.16,437.62Z" transform="translate(-298.54 -393.31)"/><path class="cls-2" d="M352.46,452.48a.45.45,0,0,1-.29-.1l-20-14.36a.49.49,0,0,1-.21-.4.52.52,0,0,1,.21-.41l20-14.35a.45.45,0,0,1,.29-.1.46.46,0,0,1,.23.06.48.48,0,0,1,.27.44v7.28h14.4a.5.5,0,0,1,.5.5V444.2a.5.5,0,0,1-.5.5H353V452a.49.49,0,0,1-.27.44A.46.46,0,0,1,352.46,452.48Z" transform="translate(-298.54 -393.31)"/><path class="cls-2" d="M352.46,423.26V431h14.9V444.2h-14.9V452l-20-14.36,20-14.36m0-1a1,1,0,0,0-.58.19l-20,14.36a1,1,0,0,0-.42.81,1,1,0,0,0,.42.81l20,14.36a1,1,0,0,0,.58.19,1.07,1.07,0,0,0,.46-.11,1,1,0,0,0,.54-.89V445.2h13.9a1,1,0,0,0,1-1V431a1,1,0,0,0-1-1h-13.9v-6.78a1,1,0,0,0-.54-.89,1.07,1.07,0,0,0-.46-.11Z" transform="translate(-298.54 -393.31)"/><path class="cls-2" d="M326.28,466.74h27.84a8,8,0,0,0,7.94-7.94v-3.29h-6.59v3.29a1.35,1.35,0,0,1-1.35,1.35H326.28a1.35,1.35,0,0,1-1.35-1.35V416.44a1.35,1.35,0,0,1,1.35-1.35h27.84a1.35,1.35,0,0,1,1.35,1.35v2.95h6.59v-2.95a8,8,0,0,0-7.94-7.94H326.28a8,8,0,0,0-7.94,7.94V458.8A8,8,0,0,0,326.28,466.74Z" transform="translate(-298.54 -393.31)"/></svg>