<svg id="레이어_1" data-name="레이어 1" xmlns="http://www.w3.org/2000/svg" width="50" height="50" viewBox="0 0 46.93 36.78"><defs><style>.cls-1{fill:#fff;}</style></defs><path class="cls-1" d="M311.74,334.3c-2.49-4.49-7.48-1.83-7.48-1.83l-9.64,8.81h-7c-4,0-4.69,4.82-4.69,4.82v7.65s.7,4.82,4.69,4.82h7l9.64,8.81s5,2.66,7.48-1.83a9.4,9.4,0,0,0,.83-3.82V338.12A9.4,9.4,0,0,0,311.74,334.3Z" transform="translate(-282.94 -331.61)"/><circle class="cls-1" cx="34.82" cy="10.56" r="2.96"/><circle class="cls-1" cx="34.82" cy="26.07" r="2.96"/><circle class="cls-1" cx="43.97" cy="18.39" r="2.96"/><circle class="cls-1" cx="43.97" cy="33.82" r="2.96"/><circle class="cls-1" cx="43.97" cy="2.96" r="2.96"/></svg>